#!OML:ASF F:\twosubjects\two\wednesday\Session 1\rory1.ASF
:FULLY-SPECIFIED
:DEGREES
210
root 4.19163 18.3622 -6.09606 -175.902 -1.45327 181.407
lowerback 2.79275 -0.74986 -1.68054
upperback 1.7304 -1.12051 2.1343
thorax 0.28403 -0.620386 3.16191
lowerneck -14.5639 -3.1513 -1.51654
upperneck 21.7505 -3.32563 -0.249636
head 9.26997 -1.45695 -0.197231
rclavicle -1.73937e-015 -2.14687e-014
rhumerus -34.3211 22.7538 -70.9315
rradius 78.1127
rwrist 7.43798
rhand -7.15177 41.4736
rfingers 7.12502
rthumb 18.7249 12.3548
lclavicle -1.73937e-015 -2.14687e-014
lhumerus -32.304 -0.836484 81.6891
lradius 41.5335
lwrist 9.8939
lhand -28.0628 20.7406
lfingers 7.12502
lthumb -1.44654 50.7155
rfemur -15.3336 7.29028 23.2189
rtibia 26.1337
rfoot -8.83456 -5.43346
rtoes 11.5378
lfemur -15.5311 4.91504 -17.4033
ltibia 64.9036
lfoot 5.99448 4.76656
ltoes -16.7565
211
root 4.19843 18.3675 -6.26766 -175.72 -1.77858 181.156
lowerback 2.5367 -0.893159 -1.79614
upperback 1.8123 -1.30631 1.9328
thorax 0.52168 -0.714679 3.01719
lowerneck -15.1466 -3.08133 -1.17373
upperneck 22.0803 -3.25016 -0.492913
head 9.48163 -1.41937 -0.339998
rclavicle 1.88845e-015 5.56597e-015
rhumerus -33.9401 22.6262 -70.9733
rradius 77.7713
rwrist 7.48055
rhand -6.49609 41.2893
rfingers 7.12502
rthumb 19.3554 12.2325
lclavicle 1.88845e-015 5.56597e-015
lhumerus -32.6061 0.47873 81.0546
lradius 39.5625
lwrist 8.71245
lhand -27.1771 22.0943
lfingers 7.12502
lthumb -0.591174 52.0732
rfemur -14.8047 7.11899 23.1129
rtibia 26.0644
rfoot -7.09755 -5.81312
rtoes -5.7968
lfemur -17.0059 4.67198 -17.5914
ltibia 65.7277
lfoot 4.68134 5.34539
ltoes -12.4824
212
root 4.20194 18.3615 -6.42341 -175.602 -1.49051 181.259
lowerback 2.4943 -0.822403 -1.57886
upperback 1.83059 -1.20745 1.87294
thorax 0.551549 -0.663326 2.83034
lowerneck -15.4137 -3.07389 -1.38122
upperneck 22.438 -3.20078 -0.339601
head 9.66476 -1.38772 -0.2521
rclavicle 8.74653e-015 -7.7526e-015
rhumerus -33.8268 22.679 -70.9169
rradius 77.8544
rwrist 7.71941
rhand -4.81354 40.6668
rfingers 7.12502
rthumb 20.9726 11.7807
lclavicle 8.74653e-015 -7.7526e-015
lhumerus -33.1836 2.13123 80.4881
lradius 37.725
lwrist 6.86376
lhand -25.9755 22.963
lfingers 7.12502
lthumb 0.569393 52.942
rfemur -14.4046 7.27977 23.3327
rtibia 26.1117
rfoot -9.35216 -5.78259
rtoes 10.9829
lfemur -18.304 5.02232 -17.5309
ltibia 66.3858
lfoot 3.36782 5.50842
ltoes -11.1939
213
root 4.20658 18.3526 -6.56957 -175.689 -0.429144 181.65
lowerback 2.726 -0.475084 -1.22396
upperback 1.88131 -0.747907 1.92758
thorax 0.441782 -0.433501 2.68087
lowerneck -15.3257 -3.09451 -1.70418
upperneck 22.5172 -3.15897 -0.233517
head 9.6849 -1.37896 -0.154819
rclavicle -2.0276e-014 1.21259e-014
rhumerus -33.8252 22.8127 -70.7691
rradius 78.2842
rwrist 8.33185
rhand -3.71245 39.8901
rfingers 7.12502
rthumb 22.0301 11.1249
lclavicle -2.0276e-014 1.21259e-014
lhumerus -33.9519 3.64116 80.0607
lradius 35.9513
lwrist 5.76663
lhand -25.346 23.7082
lfingers 7.12502
lthumb 1.17735 53.6846
rfemur -13.9623 7.85239 23.8125
rtibia 26.2881
rfoot -9.86006 -5.36858
rtoes 11.3454
lfemur -19.3453 5.94578 -17.2403
ltibia 66.8894
lfoot 2.32731 5.56904
ltoes -11.2998
214
root 4.20825 18.3421 -6.7432 -175.607 -1.09664 181.552
lowerback 2.41315 -0.657371 -1.13308
upperback 1.87001 -0.979073 1.75557
thorax 0.613389 -0.545051 2.45296
lowerneck -14.9688 -3.14575 -1.48079
upperneck 22.4598 -3.24379 -0.375792
head 9.59063 -1.41 -0.245324
rclavicle 1.30452e-014 -1.98785e-015
rhumerus -34.1378 22.5442 -70.9298
rradius 78.5916
rwrist 8.91466
rhand -3.70244 39.6562
rfingers 7.12502
rthumb 22.0397 10.8921
lclavicle 1.30452e-014 -1.98785e-015
lhumerus -34.7024 4.50988 79.4926
lradius 33.9564
lwrist 5.23998
lhand -25.467 23.6012
lfingers 7.12502
lthumb 1.06055 53.5783
rfemur -13.428 7.69921 23.8835
rtibia 26.4272
rfoot -10.5296 -5.9684
rtoes 11.6505
lfemur -20.6994 5.18397 -17.3634
ltibia 67.204
lfoot 1.45881 5.61287
ltoes -12.3585
215
root 4.21305 18.3251 -6.90321 -175.458 -1.26566 181.647
lowerback 2.27874 -0.659077 -0.914744
upperback 1.77951 -0.967239 1.59936
thorax 0.588593 -0.531294 2.16819
lowerneck -14.9178 -3.2404 -1.2954
upperneck 22.685 -3.38567 -0.433474
head 9.65588 -1.45589 -0.313511
rclavicle -6.36111e-015 -8.54774e-015
rhumerus -34.4845 22.1779 -71.1653
rradius 78.5474
rwrist 8.96163
rhand -4.18207 40.2073
rfingers 7.12502
rthumb 21.5791 11.3896
lclavicle -6.36111e-015 -8.54774e-015
lhumerus -35.495 5.48072 78.7884
lradius 32.0048
lwrist 4.29334
lhand -26.5427 23.7408
lfingers 7.12502
lthumb 0.0215557 53.7205
rfemur -13.0106 7.5023 24.1288
rtibia 26.4925
rfoot -11.0041 -6.12598
rtoes 10.1064
lfemur -22.1083 4.93443 -17.2993
ltibia 67.3881
lfoot 0.123477 5.41614
ltoes -13.7964
216
root 4.21858 18.305 -7.04726 -175.349 -0.981025 182.053
lowerback 2.45272 -0.483421 -0.431727
upperback 1.7115 -0.724471 1.58382
thorax 0.404328 -0.404122 1.8793
lowerneck -15.1809 -3.37124 -1.35154
upperneck 22.9964 -3.52834 -0.46327
head 9.81717 -1.52283 -0.33881
rclavicle -1.76421e-015 9.83984e-015
rhumerus -34.638 21.8988 -71.1996
rradius 78.3304
rwrist 8.33197
rhand -4.45713 40.8947
rfingers 7.12502
rthumb 21.3149 12.0469
lclavicle -1.76421e-015 9.83984e-015
lhumerus -36.2807 6.53177 78.1986
lradius 30.2842
lwrist 2.80478
lhand -27.0371 25.1092
lfingers 7.12502
lthumb -0.45595 55.0884
rfemur -12.6536 7.48646 24.6843
rtibia 26.5922
rfoot -11.22 -6.19912
rtoes 6.76956
lfemur -23.4636 5.13882 -16.8897
ltibia 67.4243
lfoot -1.38564 5.12213
ltoes -14.3523
217
root 4.21856 18.2853 -7.19513 -175.369 -0.331047 182.31
lowerback 2.6564 -0.201669 -0.131334
upperback 1.72968 -0.344665 1.51828
thorax 0.293118 -0.212151 1.63683
lowerneck -15.1495 -3.44769 -1.26767
upperneck 22.9832 -3.62028 -0.610386
head 9.80181 -1.57518 -0.415082
rclavicle 2.93207e-015 -7.85199e-015
rhumerus -34.6885 21.7087 -71.2698
rradius 78.1362
rwrist 7.58061
rhand -4.98447 41.1414
rfingers 7.12502
rthumb 20.8083 12.2372
lclavicle 2.93207e-015 -7.85199e-015
lhumerus -36.9695 7.49225 77.491
lradius 28.497
lwrist 1.76444
lhand -26.5218 26.1157
lfingers 7.12502
lthumb 0.0417902 56.0955
rfemur -12.1486 7.57012 25.0311
rtibia 26.7084
rfoot -11.6945 -6.02378
rtoes 7.96813
lfemur -24.4922 5.61754 -16.6992
ltibia 67.2116
lfoot -2.40643 4.90114
ltoes -14.4979
218
root 4.21856 18.2713 -7.34983 -175.274 0.0442727 182.224
lowerback 2.63576 -0.212936 -0.242581
upperback 1.67885 -0.221932 1.40771
thorax 0.249084 -0.0910028 1.58327
lowerneck -14.8496 -3.43546 -1.30462
upperneck 22.8506 -3.59016 -0.623531
head 9.69866 -1.56552 -0.402975
rclavicle 1.55301e-015 -2.28602e-015
rhumerus -34.7889 21.8066 -71.3756
rradius 78.3992
rwrist 7.96143
rhand -5.20526 40.489
rfingers 7.12502
rthumb 20.5962 11.5616
lclavicle 1.55301e-015 -2.28602e-015
lhumerus -37.8894 9.08613 76.231
lradius 26.6056
lwrist 0.963714
lhand -25.7787 25.7195
lfingers 7.12502
lthumb 0.759447 55.6978
rfemur -11.7438 7.63343 25.0001
rtibia 26.831
rfoot -12.4601 -6.09845
rtoes 8.52026
lfemur -25.5491 5.76032 -16.8944
ltibia 66.7453
lfoot -3.48384 4.7359
ltoes -13.3987
219
root 4.22236 18.2636 -7.5019 -175.072 0.199949 181.998
lowerback 2.56127 -0.226145 -0.52863
upperback 1.57927 -0.254417 1.2846
thorax 0.190513 -0.112053 1.61818
lowerneck -14.7068 -3.41072 -1.49125
upperneck 22.9338 -3.52666 -0.489104
head 9.70821 -1.53057 -0.314696
rclavicle -2.25496e-015 3.97569e-015
rhumerus -34.9413 21.816 -71.4519
rradius 79.0337
rwrist 9.31603
rhand -4.68232 39.5572
rfingers 7.12502
rthumb 21.0986 10.6851
lclavicle -2.25496e-015 3.97569e-015
lhumerus -38.9292 11.1652 74.6631
lradius 24.6787
lwrist -0.832286
lhand -25.5717 25.3097
lfingers 7.12502
lthumb 0.959387 55.2873
rfemur -11.5161 7.7868 24.8449
rtibia 27.0161
rfoot -13.08 -6.3714
rtoes 8.07915
lfemur -26.7033 5.67926 -17.2188
ltibia 66.0934
lfoot -4.84084 4.39599
ltoes -13.5811
